<svg width="28" height="28" viewBox="0 0 28 28" fill="none" xmlns="http://www.w3.org/2000/svg">
<g clip-path="url(#clip0_329_4537)">
<path d="M7.71631 16.2047V15.3297H8.76288V11.3477H7.26959C6.60715 11.3477 5.96479 11.6217 5.46356 12.0631C4.96065 12.5061 4.60352 13.1128 4.51366 13.7762L4.30323 15.3297H5.03383C6.09612 15.3297 5.76063 16.2047 5.2878 16.2047H3.80372C3.5621 16.2047 3.36621 16.0088 3.36621 15.7672V15.7672C3.36621 15.7356 3.36957 15.7048 3.37595 15.6751L3.40876 15.4329L3.64891 13.66C3.76821 12.7792 4.23313 11.9818 4.88592 11.4069C5.54043 10.8305 6.38765 10.4727 7.2696 10.4727H9.20041C9.44203 10.4727 9.63792 10.6685 9.63792 10.9102V15.2962C9.63792 15.3779 9.64272 15.4734 9.64257 15.5714C9.37269 15.7332 9.14433 15.9378 8.99478 16.2047H7.71632L7.71631 16.2047ZM3.37134 15.7091C3.36871 15.7286 3.36747 15.748 3.36743 15.7672L3.37134 15.7091Z" fill="#4E6FF3"/>
<path d="M3.50001 15.3301C3.25839 15.3301 3.0625 15.526 3.0625 15.7676C3.0625 16.0092 3.25839 16.2051 3.50001 16.2051H4.56135C4.80297 16.2051 4.99886 16.0092 4.99886 15.7676C4.99886 15.526 4.80297 15.3301 4.56135 15.3301H3.50001Z" fill="#4E6FF3"/>
<path d="M18.7449 11.7451V8.06495C18.7449 7.82333 18.549 7.62744 18.3074 7.62744H9.2005C8.95888 7.62744 8.76299 7.82333 8.76299 8.06495C8.76299 8.07722 8.7635 8.08938 8.7645 8.10141L8.7268 15.7653L8.7251 15.7653C8.72418 15.9542 8.84319 16.1158 9.01068 16.1778C9.24917 15.7734 9.67147 15.515 10.1415 15.3316H9.60054L9.63415 8.50247H17.8699V11.7531C17.9799 11.7478 18.0901 11.7451 18.2004 11.7451L18.7449 11.7451Z" fill="#4E6FF3"/>
<path d="M9.09568 13.3594C9.32117 13.3594 9.50398 13.1635 9.50398 12.9219C9.50398 12.6803 9.32117 12.4844 9.09568 12.4844H4.62314C4.39765 12.4844 4.21484 12.6803 4.21484 12.9219C4.21484 13.1635 4.39765 13.3594 4.62314 13.3594H9.09568Z" fill="#4E6FF3"/>
<path d="M6.50185 14.0024C6.95792 14.0024 7.37087 14.1874 7.6698 14.4863C7.96871 14.7852 8.15362 15.1981 8.15362 15.6542C8.15362 16.1103 7.96871 16.5232 7.6698 16.8221C7.37086 17.1211 6.95792 17.306 6.50185 17.306C6.04579 17.306 5.63285 17.1211 5.33392 16.8221C5.03499 16.5232 4.8501 16.1103 4.8501 15.6542C4.8501 15.1981 5.03499 14.7852 5.33392 14.4863C5.63285 14.1874 6.04579 14.0024 6.50185 14.0024ZM7.05114 15.1049C6.9106 14.9644 6.71639 14.8775 6.50185 14.8775C6.28732 14.8775 6.09311 14.9644 5.95258 15.1049C5.81205 15.2455 5.72512 15.4397 5.72512 15.6542C5.72512 15.8687 5.81205 16.0629 5.95258 16.2035C6.09311 16.344 6.28731 16.4309 6.50185 16.4309C6.71639 16.4309 6.9106 16.344 7.05114 16.2035C7.19166 16.0629 7.2786 15.8687 7.2786 15.6542C7.2786 15.4397 7.19166 15.2455 7.05114 15.1049Z" fill="#4E6FF3"/>
<path d="M11.7702 18.9738C12.0118 18.9738 12.2077 18.7779 12.2077 18.5363C12.2077 18.2946 12.0118 18.0987 11.7702 18.0987H10.1187V16.9725C10.1187 16.6239 10.9144 16.4359 11.6422 16.264C12.2007 16.1321 12.729 16.0072 13.0606 15.7556L12.7974 15.4087L13.0618 15.7572C13.1038 15.7254 13.1384 15.6875 13.1653 15.6457C13.7343 14.8658 14.5087 14.2157 15.3882 13.7618C16.2564 13.3137 17.2262 13.0576 18.2001 13.0576H24.0625V18.0987H22.8613C22.6197 18.0987 22.4238 18.2946 22.4238 18.5362C22.4238 18.7779 22.6197 18.9738 22.8613 18.9738H24.5C24.7416 18.9738 24.9375 18.7779 24.9375 18.5362V12.6201C24.9375 12.3785 24.7416 12.1826 24.5 12.1826H18.2002C17.0864 12.1826 15.9788 12.4747 14.9882 12.986C14.0028 13.4946 13.1324 14.2212 12.4867 15.0935C12.2847 15.2142 11.875 15.311 11.444 15.4129C10.3929 15.6612 9.24365 15.9327 9.24365 16.9725V18.2653C9.24365 18.4606 9.32321 18.6378 9.45141 18.766C9.57961 18.8942 9.75685 18.9738 9.95209 18.9738H11.7702L11.7702 18.9738ZM20.4494 18.9738C20.691 18.9738 20.8869 18.7779 20.8869 18.5363C20.8869 18.2946 20.691 18.0987 20.4494 18.0987H14.2017C13.96 18.0987 13.7641 18.2946 13.7641 18.5363C13.7641 18.7779 13.96 18.9738 14.2017 18.9738H20.4494Z" fill="#4E6FF3"/>
<path d="M12.7847 14.9614C12.5431 14.9614 12.3472 15.1573 12.3472 15.3989C12.3472 15.6406 12.5431 15.8364 12.7847 15.8364H17.3903C17.6319 15.8364 17.8278 15.6406 17.8278 15.3989C17.8278 15.1573 17.6319 14.9614 17.3903 14.9614H12.7847Z" fill="#4E6FF3"/>
<path d="M17.8936 12.7949C17.8936 12.5533 17.6977 12.3574 17.4561 12.3574C17.2144 12.3574 17.0186 12.5533 17.0186 12.7949V18.5106C17.0186 18.7523 17.2144 18.9481 17.4561 18.9481C17.6977 18.9481 17.8936 18.7523 17.8936 18.5106V12.7949Z" fill="#4E6FF3"/>
<path d="M9.18898 18.1187C8.94736 18.1187 8.75146 18.3145 8.75146 18.5562C8.75146 18.7978 8.94736 18.9937 9.18898 18.9937H10.9539C11.1956 18.9937 11.3915 18.7978 11.3915 18.5562C11.3915 18.3145 11.1956 18.1187 10.9539 18.1187H9.18898Z" fill="#4E6FF3"/>
<path d="M12.9857 17.0591C13.4431 17.0591 13.8573 17.2445 14.1571 17.5443C14.4569 17.8441 14.6424 18.2583 14.6424 18.7157C14.6424 19.1731 14.4569 19.5873 14.1571 19.8871C13.8573 20.1869 13.4431 20.3724 12.9857 20.3724C12.5283 20.3724 12.1141 20.1869 11.8144 19.8871C11.5145 19.5873 11.3291 19.1732 11.3291 18.7157C11.3291 18.2583 11.5145 17.8441 11.8144 17.5443C12.1141 17.2445 12.5283 17.0591 12.9857 17.0591ZM13.5385 18.163C13.3971 18.0216 13.2016 17.9341 12.9857 17.9341C12.7699 17.9341 12.5744 18.0216 12.433 18.163C12.2916 18.3044 12.2041 18.4998 12.2041 18.7157C12.2041 18.9316 12.2916 19.127 12.433 19.2685C12.5744 19.4099 12.7699 19.4974 12.9857 19.4974C13.2016 19.4974 13.3971 19.4099 13.5385 19.2685C13.6799 19.127 13.7674 18.9316 13.7674 18.7157C13.7674 18.4998 13.6799 18.3044 13.5385 18.163Z" fill="#4E6FF3"/>
<path d="M21.6557 17.0591C22.1131 17.0591 22.5273 17.2445 22.8271 17.5443C23.1269 17.8441 23.3123 18.2583 23.3123 18.7157C23.3123 19.1732 23.1269 19.5873 22.8271 19.8871C22.5273 20.1869 22.1131 20.3724 21.6557 20.3724C21.1983 20.3724 20.7841 20.1869 20.4843 19.8871C20.1845 19.5873 19.999 19.1732 19.999 18.7157C19.999 18.2583 20.1845 17.8441 20.4843 17.5443C20.7841 17.2445 21.1983 17.0591 21.6557 17.0591ZM22.2084 18.163C22.067 18.0216 21.8715 17.9341 21.6557 17.9341C21.4398 17.9341 21.2443 18.0216 21.1029 18.163C20.9615 18.3044 20.874 18.4998 20.874 18.7157C20.874 18.9316 20.9615 19.127 21.1029 19.2685C21.2443 19.4099 21.4398 19.4974 21.6557 19.4974C21.8715 19.4974 22.067 19.4099 22.2084 19.2685C22.3498 19.127 22.4373 18.9316 22.4373 18.7157C22.4373 18.4998 22.3498 18.3044 22.2084 18.163Z" fill="#4E6FF3"/>
</g>
<defs>
<clipPath id="clip0_329_4537">
<rect width="28" height="28" fill="white"/>
</clipPath>
</defs>
</svg>
