<svg width="24" height="24" viewBox="0 0 24 24" fill="none" xmlns="http://www.w3.org/2000/svg">
<g clip-path="url(#clip0_329_4532)">
<path d="M14.25 4.5C14.25 4.08577 13.9142 3.75 13.5 3.75H6C5.58577 3.75 5.25 4.08577 5.25 4.5V10.5C5.25 10.9142 5.58577 11.25 6 11.25H13.5C13.9142 11.25 14.25 10.9142 14.25 10.5V4.5ZM12.75 9.75H6.75V5.25H12.75V9.75Z" fill="#00A3FF"/>
<path d="M22.8533 5.31811L19.8623 3.81811C19.491 3.63206 19.0457 3.78333 18.8604 4.15355C18.6751 4.52414 18.8275 4.97461 19.1981 5.15991L20.3372 5.72892C20.3068 5.81048 20.2673 5.89673 20.2673 5.98903C20.2673 6.96553 21 7.79025 21.75 8.1008V17.239C21.75 17.6525 21.4134 17.989 21 17.989C20.5866 17.989 20.25 17.6525 20.25 17.239V11.239C20.25 9.4282 18.75 7.9133 17.25 7.56483V2.98903C17.25 1.33486 15.94 0 14.2858 0H5.28581C3.63164 0 2.25 1.33486 2.25 2.98903V19.7754L1.16456 20.3181C0.910406 20.4452 0.75 20.7048 0.75 20.989V23.239C0.75 23.6532 1.12162 24 1.53581 24H18.0358C18.45 24 18.75 23.6532 18.75 23.239V20.989C18.75 20.7048 18.5896 20.4452 18.3354 20.3181L17.25 19.7754V9.12727C18 9.43781 18.75 10.2625 18.75 11.239V17.239C18.75 18.4798 19.7593 19.489 21 19.489C22.2407 19.489 23.25 18.4798 23.25 17.239V5.98903C23.25 5.70483 23.1075 5.44519 22.8533 5.31811ZM17.25 22.5H2.25V21.4526L3.33544 20.9099C3.58959 20.7828 3.75 20.5232 3.75 20.239V2.98898C3.75 2.16173 4.45852 1.5 5.28581 1.5H14.2858C15.1131 1.5 15.75 2.16173 15.75 2.98903V20.239C15.75 20.5232 15.9104 20.7829 16.1646 20.91L17.25 21.4526V22.5Z" fill="#00A3FF"/>
</g>
<defs>
<clipPath id="clip0_329_4532">
<rect width="24" height="24" fill="white"/>
</clipPath>
</defs>
</svg>
