<svg width="28" height="28" viewBox="0 0 28 28" fill="none" xmlns="http://www.w3.org/2000/svg">
<path d="M20.7042 8.56453V6.07824C20.7042 5.38083 20.1368 4.81348 19.4396 4.81348H8.56C7.86276 4.81348 7.29541 5.38083 7.29541 6.07824V8.56453C7.29541 9.06865 7.62402 9.49322 8.07664 9.64742V19.1311C7.62402 19.2853 7.29541 19.7099 7.29541 20.214V21.9217C7.29541 22.6192 7.86276 23.1865 8.56 23.1865H10.9747C11.4787 23.1865 11.9033 22.858 12.0576 22.4055H15.946C16.1002 22.858 16.5248 23.1865 17.0288 23.1865H19.4396C20.1368 23.1865 20.7042 22.6192 20.7042 21.9217V20.214C20.7042 19.7099 20.3756 19.2854 19.9233 19.1311V9.64737C20.3756 9.4931 20.7042 9.06859 20.7042 8.56453ZM8.03033 6.07824C8.03033 5.78615 8.26791 5.5484 8.56 5.5484H19.4396C19.7317 5.5484 19.9692 5.78615 19.9692 6.07824V8.56453C19.9692 8.79165 19.7853 8.97588 19.5589 8.97764C19.5578 8.97764 19.5569 8.97702 19.5558 8.97702C19.5547 8.97702 19.5538 8.97764 19.5527 8.97764C19.3261 8.97588 19.1421 8.79165 19.1421 8.56453V6.58942C19.1421 6.38648 18.9777 6.22196 18.7746 6.22196H9.22494C9.02183 6.22196 8.85748 6.38648 8.85748 6.58942V8.56453C8.85748 8.79165 8.67354 8.97588 8.44721 8.97764C8.4461 8.97764 8.44521 8.97702 8.4441 8.97702C8.44299 8.97702 8.44211 8.97764 8.441 8.97764C8.21433 8.97588 8.03033 8.79165 8.03033 8.56453V6.07824ZM18.4072 20.214V20.8894H17.0288C16.5246 20.8894 16.1 21.2179 15.9459 21.6706H12.0577C11.9035 21.2179 11.4789 20.8894 10.9747 20.8894H9.5924V20.214C9.5924 19.7099 9.26388 19.2854 8.81156 19.1311V9.64737C9.26388 9.4931 9.5924 9.06859 9.5924 8.56453V6.95688H18.4072V8.56453C18.4072 9.06865 18.7358 9.49319 19.1884 9.64742V19.1311C18.7358 19.2853 18.4072 19.7099 18.4072 20.214ZM10.9747 22.4516H8.56C8.26791 22.4516 8.03033 22.2139 8.03033 21.9217V20.214C8.03033 19.9858 8.21587 19.8002 8.4441 19.8002C8.67197 19.8002 8.85748 19.9858 8.85748 20.214V21.2568C8.85748 21.4598 9.02183 21.6243 9.22494 21.6243H10.9747C11.2029 21.6243 11.3885 21.8098 11.3885 22.0378C11.3885 22.2661 11.2029 22.4516 10.9747 22.4516ZM19.9692 21.9217C19.9692 22.2139 19.7317 22.4516 19.4396 22.4516H17.0288C16.8006 22.4516 16.6151 22.2661 16.6151 22.0378C16.6151 21.8098 16.8006 21.6243 17.0288 21.6243H18.7746C18.9777 21.6243 19.1421 21.4598 19.1421 21.2568V20.214C19.1421 19.9858 19.3276 19.8002 19.5558 19.8002C19.7837 19.8002 19.9692 19.9858 19.9692 20.214V21.9217Z" fill="#1DD1A1"/>
<path d="M17.261 7.78369H10.7386C10.5355 7.78369 10.3711 7.94824 10.3711 8.15118V12.6831C10.3711 12.886 10.5355 13.0505 10.7386 13.0505H17.261C17.4641 13.0505 17.6285 12.886 17.6285 12.6831V8.15118C17.6285 7.94824 17.4641 7.78369 17.261 7.78369ZM16.8935 12.3156H11.106V8.51864H16.8935V12.3156Z" fill="#1DD1A1"/>
<path d="M13.9999 15.6992C13.0837 15.6992 12.3384 16.4445 12.3384 17.3605C12.3384 18.2765 13.0837 19.0218 13.9999 19.0218C14.916 19.0218 15.6613 18.2765 15.6613 17.3605C15.6613 16.4445 14.916 15.6992 13.9999 15.6992ZM13.9999 18.2869C13.4889 18.2869 13.0733 17.8713 13.0733 17.3605C13.0733 16.8497 13.4889 16.4341 13.9999 16.4341C14.5108 16.4341 14.9264 16.8497 14.9264 17.3605C14.9264 17.8713 14.5108 18.2869 13.9999 18.2869Z" fill="#1DD1A1"/>
<path d="M17.0001 15.4477C16.9337 15.5175 16.8936 15.6094 16.8936 15.7086C16.8936 15.8041 16.9337 15.8997 17.0001 15.9657C17.0698 16.0357 17.1652 16.076 17.261 16.076C17.3565 16.076 17.4519 16.0357 17.5219 15.9657C17.5879 15.8997 17.6285 15.8041 17.6285 15.7086C17.6285 15.6094 17.5879 15.5175 17.5219 15.4477C17.3859 15.3117 17.1358 15.3117 17.0001 15.4477Z" fill="#1DD1A1"/>
<path d="M17.0001 17.1015C16.9337 17.1675 16.8936 17.2632 16.8936 17.3624C16.8936 17.4578 16.9337 17.5535 17.0001 17.6195C17.0698 17.6895 17.1652 17.7299 17.261 17.7299C17.3565 17.7299 17.4519 17.6895 17.5219 17.6195C17.5879 17.5535 17.6285 17.4578 17.6285 17.3624C17.6285 17.2632 17.5879 17.1675 17.5219 17.1015C17.3859 16.9655 17.1358 16.9655 17.0001 17.1015Z" fill="#1DD1A1"/>
<path d="M17.0001 18.7548C16.9337 18.8246 16.8936 18.9165 16.8936 19.0157C16.8936 19.1112 16.9337 19.2068 17.0001 19.2728C17.0698 19.3428 17.1652 19.3832 17.261 19.3832C17.3565 19.3832 17.4519 19.3428 17.5219 19.2728C17.5879 19.2068 17.6285 19.1112 17.6285 19.0157C17.6285 18.9165 17.5879 18.8246 17.5219 18.7548C17.3859 18.6188 17.1358 18.6188 17.0001 18.7548Z" fill="#1DD1A1"/>
<path d="M10.9995 15.4478C10.9148 15.3632 10.7863 15.3227 10.665 15.3485C10.6428 15.3521 10.6209 15.3595 10.5986 15.3668C10.5767 15.378 10.5548 15.3889 10.5362 15.4C10.5143 15.4146 10.496 15.4293 10.4777 15.4478C10.4443 15.4808 10.4188 15.5211 10.4005 15.5653C10.3819 15.6094 10.3711 15.6571 10.3711 15.7086C10.3711 15.8041 10.4113 15.8997 10.4777 15.9657C10.496 15.9842 10.5143 15.999 10.5362 16.0137C10.5548 16.0246 10.5767 16.0357 10.5986 16.0467C10.6209 16.054 10.6428 16.0614 10.665 16.0687C10.6905 16.0723 10.7127 16.0761 10.7386 16.0761C10.834 16.0761 10.9295 16.0357 10.9995 15.9657C11.0655 15.8997 11.106 15.8041 11.106 15.7086C11.106 15.6571 11.0949 15.6094 11.0766 15.5653C11.0579 15.5211 11.0325 15.4808 10.9995 15.4478Z" fill="#1DD1A1"/>
<path d="M10.9995 17.1011C10.9112 17.0166 10.7863 16.9761 10.665 16.9981C10.6428 17.0055 10.6209 17.0128 10.5986 17.0202C10.5767 17.0313 10.5548 17.0422 10.5362 17.0534C10.5143 17.0679 10.496 17.0826 10.4777 17.1011C10.4443 17.1341 10.4188 17.1745 10.4005 17.2186C10.3819 17.2664 10.3711 17.3105 10.3711 17.362C10.3711 17.4574 10.4113 17.5531 10.4777 17.6191C10.496 17.6376 10.5143 17.6523 10.5362 17.667C10.5548 17.678 10.5767 17.6891 10.5986 17.7C10.6209 17.7074 10.6428 17.7147 10.665 17.7221C10.6905 17.7257 10.7127 17.7295 10.7386 17.7295C10.834 17.7295 10.9295 17.6891 10.9995 17.6191C11.0655 17.5531 11.106 17.4574 11.106 17.362C11.106 17.3105 11.0949 17.2664 11.0766 17.2186C11.0579 17.1745 11.0325 17.1341 10.9995 17.1011Z" fill="#1DD1A1"/>
<path d="M10.9995 18.7549C10.9112 18.6704 10.7863 18.6298 10.665 18.6557C10.6428 18.6593 10.6209 18.6666 10.5986 18.674C10.5767 18.6851 10.5548 18.696 10.5362 18.7072C10.5143 18.7217 10.496 18.7364 10.4777 18.7549C10.4443 18.7879 10.4188 18.8283 10.4005 18.8724C10.3819 18.9201 10.3711 18.9643 10.3711 19.0158C10.3711 19.0378 10.3747 19.0635 10.3783 19.0856C10.3819 19.1112 10.3894 19.1333 10.4005 19.1553C10.4077 19.1774 10.4188 19.1995 10.4336 19.2178C10.4483 19.2399 10.463 19.2583 10.4777 19.2729C10.496 19.2914 10.5143 19.3061 10.5362 19.3208C10.5548 19.3317 10.5767 19.3428 10.5986 19.3538C10.6209 19.3612 10.6428 19.3685 10.665 19.3759C10.6905 19.3794 10.7127 19.3832 10.7386 19.3832C10.834 19.3832 10.9295 19.3428 10.9995 19.2729C11.0142 19.2583 11.0289 19.2399 11.0436 19.2178C11.0579 19.1995 11.0691 19.1774 11.0766 19.1553C11.0874 19.1333 11.0949 19.1112 11.0985 19.0856C11.1021 19.0635 11.106 19.0378 11.106 19.0158C11.106 18.9643 11.0949 18.9201 11.0766 18.8724C11.0579 18.8283 11.0325 18.7879 10.9995 18.7549Z" fill="#1DD1A1"/>
</svg>
